<svg xmlns="http://www.w3.org/2000/svg" viewBox="0 0 94.64 96.21" x="0px" y="0px"><title>shooting_star_1</title><g data-name="Layer 2"><g data-name="Layer 2"><g><path d="M28.63,54.59c.49.1,1.59,0,4.79-4.25a29.6,29.6,0,0,0,2.64-3.91c2.38-4.35,6.8-8.38,12.87-13.91C51.76,30,55,27.28,57.92,25a.93.93,0,0,1-.14-.14,1.67,1.67,0,0,1,2.62-2.06,2.39,2.39,0,0,1,.13.21l1-.73c2.13-1.55,4.27-3.09,6.37-4.69C69,16.73,69.66,16,71,15.13c1.8-1.17,2.52-1.28,4-2.33a9.69,9.69,0,0,0,3-3c2-3.41.42-8-1-8.89A7.29,7.29,0,0,0,75.63.31,5.4,5.4,0,0,0,74.24,0a12.5,12.5,0,0,0-3.71.89,34.56,34.56,0,0,0-6.68,3.43A92,92,0,0,0,40.1,25.49,106.64,106.64,0,0,0,31.43,39.2,42,42,0,0,0,28,46.41a34.34,34.34,0,0,0-.89,3.73c-.31,1.51-.4,2.19-.07,2.93C27.16,53.28,27.69,54.4,28.63,54.59Zm40.74-50a1.67,1.67,0,1,1-1.73,1.6A1.66,1.66,0,0,1,69.37,4.62Zm-8.05,8.65a1.67,1.67,0,1,1-1.73,1.59A1.67,1.67,0,0,1,61.32,13.27Zm-8.06,2.57a1.67,1.67,0,1,1-1.73,1.6A1.67,1.67,0,0,1,53.26,15.84Zm-3.53,9A1.66,1.66,0,1,1,48,26.44,1.67,1.67,0,0,1,49.73,24.85Zm-8.24,4.87a1.67,1.67,0,1,1-1.73,1.6A1.67,1.67,0,0,1,41.49,29.72ZM33.64,41.65A1.66,1.66,0,1,1,33.28,44,1.67,1.67,0,0,1,33.64,41.65Z"></path><path d="M69.22,42.07q2.4-1.14,4.83-2.19c2.91-1.25,5.88-2.35,8.74-3.71,3.46-1.64,7.09-3.55,9.71-6.4,2.32-2.52,3-5.65.83-8.51-2.51-3.33-6.75-3.35-10.46-2.38a37.55,37.55,0,0,0-9,3.81,1.66,1.66,0,1,1-2.29,1.47c0-.05,0-.09,0-.14l-1.08.66c-4.05,2.54-7.92,5.37-11.71,8.27-.62.48-1.22,1-1.83,1.45a1.69,1.69,0,0,1,.13.71,1.67,1.67,0,0,1-1.73,1.6,1.71,1.71,0,0,1-.9-.31Q50,40,45.93,44.07a1.39,1.39,0,0,1,0,.41,1.66,1.66,0,0,1-1.73,1.6,1.54,1.54,0,0,1-.3,0c-.11.11-.23.22-.34.34a88.61,88.61,0,0,0-6.47,7.49c-.45.6-.9,1.2-1.34,1.81a7.65,7.65,0,0,0-.57,1c-1,2-1.95,4-1.14,5.11a1.45,1.45,0,0,0,.68.51c1,.34,2.08-.48,2.92-1,1.54-.87,3-1.8,4.53-2.75,3-1.92,5.89-4,8.82-6A136.49,136.49,0,0,1,69.22,42.07ZM89.58,24.56a1.67,1.67,0,1,1-1.73,1.59A1.67,1.67,0,0,1,89.58,24.56Zm-8.64.28a1.67,1.67,0,1,1-1.74,1.6A1.67,1.67,0,0,1,80.94,24.84Zm-3.58,8a1.67,1.67,0,1,1-1.73,1.6A1.67,1.67,0,0,1,77.36,32.82ZM67.75,29.6A1.67,1.67,0,1,1,66,31.2,1.67,1.67,0,0,1,67.75,29.6Zm-2.28,7.61a1.66,1.66,0,1,1-1.74,1.59A1.65,1.65,0,0,1,65.47,37.21ZM54.61,41.38A1.67,1.67,0,1,1,52.88,43,1.65,1.65,0,0,1,54.61,41.38ZM42,55.39A1.67,1.67,0,1,1,41.85,53,1.66,1.66,0,0,1,42,55.39Zm7.28-4.49A1.67,1.67,0,1,1,51,49.31,1.67,1.67,0,0,1,49.26,50.9Z"></path><path d="M86.36,45.25c-5-.16-9.92,1.76-14.42,3.62-2.36,1-4.61,2.17-6.93,3.2-3.06,1.36-5,2.38-6.53,3.14-4.14,2-6.16,3.16-7.16,3.77-3.57,2.19-6.35,3.93-6.14,5.91a2.38,2.38,0,0,0,1.12,1.75c1.31.77,3-.32,7.1-2.2,1.42-.65,2.82-1.37,4.3-1.9a129.53,129.53,0,0,1,18.51-4.65c3.72-.75,4.82-.82,7.08-1.49,3.8-1.12,9-2.66,9.55-5.8a4.25,4.25,0,0,0-.93-3.22A7.74,7.74,0,0,0,86.36,45.25Zm-32.48,16a1.67,1.67,0,1,1,1.73-1.6A1.67,1.67,0,0,1,53.88,61.27Zm8.72-2a1.67,1.67,0,1,1,1.73-1.6A1.67,1.67,0,0,1,62.6,59.23Zm8-4a1.67,1.67,0,1,1,1.73-1.6A1.67,1.67,0,0,1,70.63,55.2Zm7.83.92a1.67,1.67,0,1,1,1.73-1.6A1.67,1.67,0,0,1,78.46,56.12ZM86.19,51a1.67,1.67,0,1,1,1.73-1.6A1.67,1.67,0,0,1,86.19,51Z"></path><path d="M40.23,71.32l-11.1-3.06a1.75,1.75,0,0,1-1.2-1.12L24.15,56.26A1.76,1.76,0,0,0,21,55.87l-6.34,9.61a1.78,1.78,0,0,1-1.44.8L1.73,66.5A1.77,1.77,0,0,0,.39,69.37l7.18,9A1.78,1.78,0,0,1,7.88,80L4.54,91a1.76,1.76,0,0,0,2.31,2.16L17.62,89.1a1.78,1.78,0,0,1,1.63.21l9.45,6.58a1.77,1.77,0,0,0,2.77-1.53L31,82.86a1.74,1.74,0,0,1,.69-1.48l9.18-6.95A1.77,1.77,0,0,0,40.23,71.32Z"></path></g></g></g></svg>